<svg xmlns="http://www.w3.org/2000/svg" version="1.1" xmlns:xlink="http://www.w3.org/1999/xlink" xmlns:svgjs="http://svgjs.dev/svgjs" width="100%" height="100%" viewBox="0 0 1000 600"><rect width="1000" height="600" x="0" y="0" fill="#e4e7ec"/><g><rect width="333.3333333333333" height="333.3333333333333" rx="13.333333333333334" ry="13.333333333333334" y="299.1420907202214" fill="#013dc4" transform="matrix(0.4513941975421204,0,0,0.4513941975421204,0,89.73664804761779)" x="276.9198303222656"/><path d="M450.5954149904706 540.8087436243454L436.458510656566 540.8087436243454L386.84541692052574 390.80874816565154L405.59541635286246 390.80874816565154L440.7442248125286 503.100411432646Q441.60732002449333 505.7789827801227 442.3513676210146 508.99326839709465Q443.0954152175359 512.2075540140667 443.5418437754487 514.7670777461L443.5418437754487 514.7670777461Q444.077558044944 512.2075540140667 444.82160564146534 509.0527922048164Q445.5656532379866 505.86826849170524 446.3097008345079 503.18969714422855L446.3097008345079 503.18969714422855L481.5775569096175 390.80874816565154L500.3275563419542 390.80874816565154L450.5954149904706 540.8087436243454Z " fill="#e4e7ec" transform="matrix(0.4513941975421204,0,0,0.4513941975421204,0,89.73664804761779)"/><path d="M754.3926895831805 538.3674179954886L740.9085876432729 538.3674179954886L693.5864867299547 395.2939995173101L711.470664039727 395.2939995173101L744.9963995997923 502.40035029472426Q745.8196395077024 504.95523276754886 746.529329083487 508.0210917349384Q747.2390186592717 511.08695070232795 747.6648324047424 513.528282843027L747.6648324047424 513.528282843027Q748.1758088993074 511.08695070232795 748.8854984750919 508.0778669010012Q749.5951880508766 505.040395516643 750.3048776266612 502.4855130438184L750.3048776266612 502.4855130438184L783.944163518852 395.2939995173101L801.8283408286243 395.2939995173101L754.3926895831805 538.3674179954886ZM884.6065329481418 535.3015590280991L867.943021708719 535.3015590280991L867.943021708719 433.92950002302456L884.6065329481418 433.92950002302456L884.6065329481418 535.3015590280991ZM913.4199297249971 538.3674179954886L839.1296249318636 538.3674179954886L839.1296249318636 523.5490996531058L913.4199297249971 523.5490996531058L913.4199297249971 538.3674179954886ZM877.1405986108877 448.74781836540734L839.1296249318636 448.74781836540734L839.1296249318636 433.92950002302456L877.1405986108877 433.92950002302456L877.1405986108877 448.74781836540734ZM876.203808370852 414.2001298162122L876.203808370852 414.2001298162122Q871.8321205840188 414.2001298162122 868.7662616166292 411.1342708488227Q865.7004026492397 408.0684118814332 865.7004026492397 403.5831737624744L865.7004026492397 403.5831737624744Q865.7004026492397 398.9843853113901 868.7662616166292 395.8617511779378Q871.8321205840188 392.7391170444855 876.203808370852 392.7391170444855L876.203808370852 392.7391170444855Q880.9161471540618 392.7391170444855 883.8684557893258 395.8617511779378Q886.8491520076212 398.9843853113901 886.8491520076212 403.5831737624744L886.8491520076212 403.5831737624744Q886.8491520076212 408.0684118814332 883.8684557893258 411.1342708488227Q880.9161471540618 414.2001298162122 876.203808370852 414.2001298162122ZM998.8381670664336 540.8087501361877L998.8381670664336 540.8087501361877Q987.3128083556913 540.8087501361877 977.178441213487 535.6138224414442Q967.0724616543141 530.3905071636696 960.3162168928446 522.5271466639759L960.3162168928446 522.5271466639759L971.7564128544926 512.4211671048031Q976.4687516377024 517.729645131672 983.9346859749566 521.9593950033483Q991.4006203122107 526.217532458056 1000.0872207198145 526.217532458056L1000.0872207198145 526.217532458056Q1008.6602707952926 526.217532458056 1014.5365004827892 522.6690845791329Q1020.4127301702857 519.1490242832413 1020.4127301702857 512.3076167726774L1020.4127301702857 512.3076167726774Q1020.4127301702857 506.6868753324634 1016.6939567931744 502.8545516232264Q1012.9467958330316 499.02222791398947 1006.8718530643154 496.2118571938824Q1000.7969102955991 493.4014864737753 993.8419524529098 490.73305366882516L993.8419524529098 490.73305366882516Q984.9566389640864 487.3833188711218 977.4907046268323 483.3238944976338Q970.0247702895782 479.2928577071772 965.5963073366821 473.3598528536178Q961.1394568007547 467.4552355830898 961.1394568007547 458.541534511235L961.1394568007547 458.541534511235Q961.1394568007547 450.2807478491021 965.8517955839646 444.2058050803858Q970.535746784143 438.1024747286381 978.7681458632445 434.7811275139661Q987.0005449423461 431.4597802992941 997.4187879148643 431.4597802992941L997.4187879148643 431.4597802992941Q1008.9725342086377 431.4597802992941 1018.0565607786809 435.80308050309594Q1027.1689749317552 440.1463807068978 1033.5845686968482 447.5271522950578L1033.5845686968482 447.5271522950578L1022.570186480671 456.8098919463206Q1018.4823745241516 452.92079307102085 1012.0951683420901 449.5142831072547Q1005.7079621600286 446.0793855604572 996.7090983390796 446.0793855604572L996.7090983390796 446.0793855604572Q987.8237848502563 446.0793855604572 982.4017564912618 449.3439576090664Q976.9797281322673 452.636917240707 976.9797281322673 458.45637176214086L976.9797281322673 458.45637176214086Q976.9797281322673 463.1403229623193 980.4430132620963 466.4332825939599Q983.9346859749566 469.69785464256915 989.498652249108 472.19596194933104Q995.0626185232594 474.69406925609286 1001.5065998713836 477.1637889798233L1001.5065998713836 477.1637889798233Q1009.7957741165479 480.22964794721287 1017.8010725313985 484.2039095716067Q1025.8347585292804 488.17817119600056 1031.0296862240236 494.6221525441249Q1036.2530015017983 501.0661338922492 1036.2530015017983 511.5979271968929L1036.2530015017983 511.5979271968929Q1036.2530015017983 525.0820291368005 1026.175409525657 532.9453896364942Q1016.1262051325467 540.8087501361877 998.8381670664336 540.8087501361877ZM1122.9202924966157 540.8087501361877L1122.9202924966157 540.8087501361877Q1109.7200663870217 540.8087501361877 1100.948303230324 535.9260858547896Q1092.1481524905948 531.0150339903599 1087.804852286793 520.3413027705593Q1083.4615520829911 509.6391839677273 1083.4615520829911 492.26598315252L1083.4615520829911 492.26598315252L1083.4615520829911 433.92950002302456L1100.3237764036335 433.92950002302456L1100.3237764036335 495.24667937081534Q1100.3237764036335 511.5979271968929 1107.2219590802601 518.3825595413938Q1114.1201417568864 525.1955794689261 1124.4532219803104 525.1955794689261L1124.4532219803104 525.1955794689261Q1131.6068929042194 525.1955794689261 1137.483122591716 522.5271466639759Q1143.3593522792125 519.8587138590258 1146.8226374090414 513.4431200939329Q1150.3143101219018 506.9991387458086 1150.3143101219018 495.64410553325473L1150.3143101219018 495.64410553325473L1150.3143101219018 433.92950002302456L1167.1765344425444 433.92950002302456L1167.1765344425444 538.3674179954886L1150.3143101219018 538.3674179954886L1150.3143101219018 528.0343377720645Q1144.9774445120015 534.9892956147538 1138.3063624996262 537.9132166669865Q1131.6068929042194 540.8087501361877 1122.9202924966157 540.8087501361877ZM1244.4191478709417 540.8087501361877L1244.4191478709417 540.8087501361877Q1233.4899284038588 540.8087501361877 1225.0588162435374 536.8912636778566Q1216.6277040832163 532.9453896364942 1211.886977716975 525.1388043028634Q1207.1178637677026 517.3038313862012 1207.1178637677026 505.55137201120795L1207.1178637677026 505.55137201120795Q1207.1178637677026 493.5150368059009 1212.852155540042 485.87877697045843Q1218.5580597293506 478.27090471804735 1227.670473882425 474.6372940900301Q1236.754500452468 471.0320710450443 1246.9740303437666 471.0320710450443L1246.9740303437666 471.0320710450443Q1254.6386777622404 471.0320710450443 1261.5368604388668 472.565000528739Q1268.435043115493 474.0979300124338 1275.588714039402 477.9586413047021L1275.588714039402 477.9586413047021L1275.588714039402 469.78301739166335Q1275.588714039402 460.1880143270553 1272.5228550720126 455.02147421534335Q1269.4569961046232 449.8549341036313 1264.347231158974 447.9245784574972Q1259.2374662133245 445.99422281136304 1253.219298610671 445.99422281136304L1253.219298610671 445.99422281136304Q1244.8449616164125 445.99422281136304 1235.7893226294009 449.4007327751292Q1226.7336836423892 452.8356303219267 1220.0909892130453 457.0086050275403L1220.0909892130453 457.0086050275403L1215.2934876807412 443.01352659306764Q1222.134895191305 438.84055188745407 1232.6099133298858 435.1501660933741Q1243.0849314684667 431.4597802992941 1254.83739084346 431.4597802992941L1254.83739084346 431.4597802992941Q1260.7703956970195 431.4597802992941 1267.1008267130183 432.96432219995745Q1273.4596453120485 434.4404765175895 1278.966836420137 438.4147381419833Q1284.4740275282256 442.41738734940856 1287.8521499089602 449.5994458563489Q1291.2302722896952 456.8098919463206 1291.2302722896952 468.36363824009413L1291.2302722896952 468.36363824009413L1291.2302722896952 538.3674179954886L1275.588714039402 538.3674179954886L1275.588714039402 528.658864598755Q1269.7692595179683 533.8821798765298 1261.9626741843376 537.3454650063587Q1254.1277012676753 540.8087501361877 1244.4191478709417 540.8087501361877ZM1246.5766041813272 526.3026952071501L1246.5766041813272 526.3026952071501Q1256.4838706592805 526.3026952071501 1263.7510919153146 521.647131590003Q1270.9899255883179 517.0199555558873 1275.588714039402 511.5979271968929L1275.588714039402 511.5979271968929L1275.588714039402 493.00406031133593Q1270.6776621749727 489.9382013439464 1263.5239912510638 487.6671947014356Q1256.3703203271548 485.42457564195627 1249.0179363220261 485.42457564195627L1249.0179363220261 485.42457564195627Q1238.4861430173823 485.42457564195627 1230.6227825176888 490.27885234032306Q1222.7594220179953 495.1331290386898 1222.7594220179953 505.55137201120795L1222.7594220179953 505.55137201120795Q1222.7594220179953 514.8624992455021 1228.947915118837 520.5967910178418Q1235.1364082196792 526.3026952071501 1246.5766041813272 526.3026952071501ZM1385.4486603708606 538.3674179954886L1368.8986994635634 538.3674179954886L1368.8986994635634 396.00368909309475L1385.4486603708606 390.80876139835135L1385.4486603708606 538.3674179954886ZM1414.6878708931868 538.3674179954886L1339.6594889412372 538.3674179954886L1339.6594889412372 523.5490996531058L1414.6878708931868 523.5490996531058L1414.6878708931868 538.3674179954886ZM1379.8279189306463 405.6270797407341L1343.6621381486625 405.6270797407341L1336.1962038114084 390.80876139835135L1385.4486603708606 390.80876139835135L1379.8279189306463 405.6270797407341ZM1477.1121659792016 538.3674179954886L1460.2499416585592 538.3674179954886L1460.2499416585592 395.2939995173101L1549.0746889637617 395.2939995173101L1549.0746889637617 411.3329839300424L1477.1121659792016 411.3329839300424L1477.1121659792016 456.4124657838812L1527.3014127786896 456.4124657838812L1527.3014127786896 472.33789986448795L1477.1121659792016 472.33789986448795L1477.1121659792016 538.3674179954886ZM1637.2749094422738 538.3674179954886L1620.6965609519452 538.3674179954886L1620.6965609519452 396.00368909309475L1637.2749094422738 390.80876139835135L1637.2749094422738 538.3674179954886ZM1666.4857323815686 538.3674179954886L1591.4857380126505 538.3674179954886L1591.4857380126505 523.5490996531058L1666.4857323815686 523.5490996531058L1666.4857323815686 538.3674179954886ZM1631.6541680020596 405.6270797407341L1595.459999637044 405.6270797407341L1587.9940652997898 390.80876139835135L1637.2749094422738 390.80876139835135L1631.6541680020596 405.6270797407341ZM1754.8846659413002 540.8087501361877L1754.8846659413002 540.8087501361877Q1740.2650606801371 540.8087501361877 1729.3358412130538 534.3931563710947Q1718.4066217459708 527.9491750229704 1712.3316789772548 515.742514319475Q1706.2567362085383 503.5074660329483 1706.2567362085383 486.2478155498664L1706.2567362085383 486.2478155498664Q1706.2567362085383 469.18687814800427 1712.3316789772548 456.9234422784461Q1718.4066217459708 444.66000640888797 1729.3358412130538 438.0740871456067Q1740.2650606801371 431.4597802992941 1754.8846659413002 431.4597802992941L1754.8846659413002 431.4597802992941Q1769.6178215345885 431.4597802992941 1780.6038161677347 437.90376164741843Q1791.5898108008805 444.3477429955427 1797.6079784035342 456.6111788651009Q1803.6261460061874 468.874614734659 1803.6261460061874 486.0491024686467L1803.6261460061874 486.0491024686467Q1803.6261460061874 503.1100398705089 1797.6079784035342 515.3734757400671Q1791.5898108008805 527.6369116096253 1780.6038161677347 534.2228308729065Q1769.6178215345885 540.8087501361877 1754.8846659413002 540.8087501361877ZM1754.8846659413002 525.4794552992399L1754.8846659413002 525.4794552992399Q1770.015247697028 525.4794552992399 1778.2476467761298 514.9760495776277Q1786.4800458552313 504.4442562729839 1786.4800458552313 486.0491024686467L1786.4800458552313 486.0491024686467Q1786.4800458552313 467.73911141340363 1778.5031350234121 457.23570569179134Q1770.526224191593 446.7039123871476 1754.8846659413002 446.7039123871476L1754.8846659413002 446.7039123871476Q1739.4702083552584 446.7039123871476 1731.3797471913135 456.98021744450887Q1723.3176736104006 467.2281349188387 1723.3176736104006 486.2478155498664L1723.3176736104006 486.2478155498664Q1723.3176736104006 504.4442562729839 1731.3797471913135 514.9760495776277Q1739.4702083552584 525.4794552992399 1754.8846659413002 525.4794552992399ZM1863.9213723648481 538.3674179954886L1849.2166043545913 538.3674179954886L1823.2703534639054 433.92950002302456L1839.6216012899831 433.92950002302456L1855.6605857027157 503.4223032838541Q1856.058011865155 505.15394584876856 1856.4838256106254 507.3397897421852Q1856.8812517730653 509.5540212186332 1857.1935151864104 511.7966402781126L1857.1935151864104 511.7966402781126Q1857.704491680975 509.0430447240683 1858.0451426773516 507.05591391187136Q1858.41418125676 505.040395516643 1858.9251577513246 502.9113267892892L1858.9251577513246 502.9113267892892L1874.140902256147 433.92950002302456L1887.5398414469605 433.92950002302456L1902.8691362839081 503.1100398705089Q1903.3801127784732 505.15394584876856 1903.8910892730382 507.56689040643624Q1904.4020657676028 509.95144738107257 1904.7994919300422 512.6198801860228L1904.7994919300422 512.6198801860228Q1905.1117553433878 510.0649977131981 1905.5659566718896 507.76560348765594Q1906.0485455834232 505.4662092621138 1906.5595220779883 503.1100398705089L1906.5595220779883 503.1100398705089L1921.9739796640301 433.92950002302456L1938.438777822233 433.92950002302456L1912.378976599422 538.3674179954886L1897.8729216703846 538.3674179954886L1882.7423399146564 471.94047370204856Q1882.3165261691856 469.89656772378885 1881.7771620915892 467.029421837619Q1881.2094104309617 464.16227595144915 1880.6984339363967 461.40868039740485L1880.6984339363967 461.40868039740485Q1880.187457441832 464.38937661570026 1879.6197057812042 467.08619700368183Q1879.0519541205763 469.78301739166335 1878.654527958137 471.6282102887034L1878.654527958137 471.6282102887034L1863.9213723648481 538.3674179954886Z " fill="#013dc4" transform="matrix(0.4513941975421204,0,0,0.4513941975421204,0,89.73664804761779)"/></g></svg>